<svg xmlns="http://www.w3.org/2000/svg" width="360" height="780" viewBox="0 0 360 780" font-family="'Barlow',Arial,sans-serif">
  <rect width="360" height="780" fill="#0b0b0d"/>

  <!-- header -->
  <circle cx="46" cy="64" r="22" fill="none" stroke="#F97316" stroke-width="2"/>
  <text x="46" y="70" text-anchor="middle" font-size="18" font-weight="600" fill="#F97316">L</text>
  <text x="80" y="56" font-size="13" fill="#8a8a92">Sunday, Jul 12</text>
  <text x="80" y="76" font-size="19" font-weight="700" fill="#ffffff">Morning, Ligin</text>
  <circle cx="322" cy="64" r="20" fill="#16161a"/>
  <path d="M322 55a7 7 0 0 0-7 7v4l-2 3h18l-2-3v-4a7 7 0 0 0-7-7z" fill="none" stroke="#cfcfd6" stroke-width="1.6"/>

  <!-- hero card -->
  <rect x="20" y="104" width="320" height="204" rx="18" fill="#241610"/>
  <rect x="36" y="124" width="116" height="22" rx="7" fill="#F97316" opacity="0.25"/>
  <text x="48" y="139" font-size="11" font-weight="700" letter-spacing="1" fill="#F97316">PUSHMEBRAIN</text>
  <text x="324" y="139" text-anchor="end" font-size="12" font-weight="600" fill="#f5b301">🔥 1 week streak</text>
  <text x="36" y="180" font-size="24" font-weight="700" fill="#ffffff">Push Day is up next</text>
  <rect x="36" y="196" width="270" height="9" rx="4.5" fill="#ffffff" opacity="0.14"/>
  <rect x="36" y="212" width="230" height="9" rx="4.5" fill="#ffffff" opacity="0.10"/>
  <text x="36" y="248" font-size="13" fill="#9a9aa2">62 min      5 exercises</text>
  <rect x="36" y="264" width="200" height="30" rx="15" fill="#F97316"/>
  <text x="52" y="284" font-size="13" font-weight="700" fill="#111114">▶  Start Workout</text>
  <rect x="246" y="264" width="60" height="30" rx="15" fill="none" stroke="#ffffff" stroke-opacity="0.25"/>

  <!-- tiles row -->
  <rect x="20" y="326" width="156" height="150" rx="16" fill="#121216"/>
  <circle cx="98" cy="392" r="34" fill="none" stroke="#22262c" stroke-width="7"/>
  <path d="M98 358 a34 34 0 0 1 24 10" fill="none" stroke="#22c58b" stroke-width="7" stroke-linecap="round"/>
  <text x="98" y="398" text-anchor="middle" font-size="20" font-weight="700" fill="#ffffff">1/4</text>
  <text x="98" y="452" text-anchor="middle" font-size="12" fill="#9a9aa2">Weekly goal</text>

  <rect x="184" y="326" width="156" height="150" rx="16" fill="#121216"/>
  <circle cx="262" cy="384" r="26" fill="#F97316"/>
  <text x="262" y="391" text-anchor="middle" font-size="22" fill="#111114">⚡</text>
  <text x="262" y="440" text-anchor="middle" font-size="15" font-weight="700" fill="#ffffff">Quick Start</text>
  <text x="262" y="458" text-anchor="middle" font-size="11" fill="#9a9aa2">Jump in</text>

  <!-- this week -->
  <text x="24" y="512" font-size="18" font-weight="700" fill="#ffffff">This Week</text>
  <text x="336" y="512" text-anchor="end" font-size="13" fill="#F97316">Details</text>
  <g>
    <rect x="20" y="528" width="100" height="96" rx="14" fill="#121216"/>
    <text x="34" y="588" font-size="22" font-weight="700" fill="#ffffff">0.0</text>
    <text x="34" y="608" font-size="12" fill="#9a9aa2">Volume</text>
    <rect x="130" y="528" width="100" height="96" rx="14" fill="#121216"/>
    <text x="144" y="588" font-size="22" font-weight="700" fill="#ffffff">0</text>
    <text x="144" y="608" font-size="12" fill="#9a9aa2">Sets</text>
    <rect x="240" y="528" width="100" height="96" rx="14" fill="#121216"/>
    <text x="254" y="588" font-size="22" font-weight="700" fill="#ffffff">1</text>
    <text x="254" y="608" font-size="12" fill="#9a9aa2">Workouts</text>
  </g>

  <!-- bottom nav -->
  <rect x="0" y="712" width="360" height="68" fill="#0e0e11"/>
  <line x1="0" y1="712" x2="360" y2="712" stroke="#ffffff" stroke-opacity="0.06"/>
  <g fill="#5a5a62" font-size="10" text-anchor="middle">
    <circle cx="54" cy="738" r="4" fill="#F97316"/><text x="54" y="760" fill="#F97316">Home</text>
    <circle cx="140" cy="738" r="4"/><text x="140" y="760">Routines</text>
    <circle cx="212" cy="738" r="4"/><text x="212" y="760">Library</text>
    <circle cx="284" cy="738" r="4"/><text x="284" y="760">Progress</text>
    <circle cx="332" cy="738" r="4"/><text x="332" y="760">Profile</text>
  </g>
</svg>
